<mxfile host="app.diagrams.net" modified="2024-05-13T15:47:56.065Z" agent="Mozilla/5.0 (Windows NT 10.0; Win64; x64) AppleWebKit/537.36 (KHTML, like Gecko) Chrome/124.0.0.0 Safari/537.36" etag="mtgzT3vEhraqj_fvu02j" version="24.4.0" type="github">
  <diagram id="C5RBs43oDa-KdzZeNtuy" name="Page-1">
    <mxGraphModel dx="1434" dy="746" grid="1" gridSize="10" guides="1" tooltips="1" connect="1" arrows="1" fold="1" page="1" pageScale="1" pageWidth="827" pageHeight="1169" math="0" shadow="0">
      <root>
        <mxCell id="WIyWlLk6GJQsqaUBKTNV-0" />
        <mxCell id="WIyWlLk6GJQsqaUBKTNV-1" parent="WIyWlLk6GJQsqaUBKTNV-0" />
        <mxCell id="-10B-c79CY3cSvoohW8W-7" value="Пацієнт (1)" style="swimlane;fontStyle=1;align=center;verticalAlign=top;childLayout=stackLayout;horizontal=1;startSize=26;horizontalStack=0;resizeParent=1;resizeParentMax=0;resizeLast=0;collapsible=1;marginBottom=0;whiteSpace=wrap;html=1;" vertex="1" parent="WIyWlLk6GJQsqaUBKTNV-1">
          <mxGeometry x="60" y="90" width="140" height="220" as="geometry" />
        </mxCell>
        <mxCell id="-10B-c79CY3cSvoohW8W-8" value="- Ім&#39;я&lt;span style=&quot;white-space: pre;&quot;&gt;&#x9;&lt;/span&gt;&lt;div&gt;&lt;span style=&quot;background-color: initial;&quot;&gt;- Прізвище&lt;/span&gt;&lt;/div&gt;&lt;div&gt;- Вік&lt;/div&gt;&lt;div&gt;- Адреса&lt;/div&gt;&lt;div&gt;- Номер телефону&lt;/div&gt;&lt;div&gt;- Почта&lt;/div&gt;&lt;div&gt;- Стать&lt;/div&gt;&lt;div&gt;&lt;br&gt;&lt;/div&gt;" style="text;strokeColor=none;fillColor=none;align=left;verticalAlign=top;spacingLeft=4;spacingRight=4;overflow=hidden;rotatable=0;points=[[0,0.5],[1,0.5]];portConstraint=eastwest;whiteSpace=wrap;html=1;" vertex="1" parent="-10B-c79CY3cSvoohW8W-7">
          <mxGeometry y="26" width="140" height="114" as="geometry" />
        </mxCell>
        <mxCell id="-10B-c79CY3cSvoohW8W-9" value="" style="line;strokeWidth=1;fillColor=none;align=left;verticalAlign=middle;spacingTop=-1;spacingLeft=3;spacingRight=3;rotatable=0;labelPosition=right;points=[];portConstraint=eastwest;strokeColor=inherit;" vertex="1" parent="-10B-c79CY3cSvoohW8W-7">
          <mxGeometry y="140" width="140" height="8" as="geometry" />
        </mxCell>
        <mxCell id="-10B-c79CY3cSvoohW8W-10" value="+ Запис на прийом до лікаря&lt;div&gt;+ Перегляд історії хвороб&lt;/div&gt;" style="text;strokeColor=none;fillColor=none;align=left;verticalAlign=top;spacingLeft=4;spacingRight=4;overflow=hidden;rotatable=0;points=[[0,0.5],[1,0.5]];portConstraint=eastwest;whiteSpace=wrap;html=1;" vertex="1" parent="-10B-c79CY3cSvoohW8W-7">
          <mxGeometry y="148" width="140" height="72" as="geometry" />
        </mxCell>
        <mxCell id="-10B-c79CY3cSvoohW8W-12" value="Медичні записи (3)" style="swimlane;fontStyle=1;align=center;verticalAlign=top;childLayout=stackLayout;horizontal=1;startSize=26;horizontalStack=0;resizeParent=1;resizeParentMax=0;resizeLast=0;collapsible=1;marginBottom=0;whiteSpace=wrap;html=1;" vertex="1" parent="WIyWlLk6GJQsqaUBKTNV-1">
          <mxGeometry x="329" y="120" width="170" height="200" as="geometry" />
        </mxCell>
        <mxCell id="-10B-c79CY3cSvoohW8W-13" value="- Дата&lt;span style=&quot;white-space: pre;&quot;&gt;&#x9;&lt;/span&gt;&lt;div&gt;&lt;span style=&quot;background-color: initial;&quot;&gt;- Лікар&lt;/span&gt;&lt;/div&gt;&lt;div&gt;- Симптоми&lt;/div&gt;&lt;div&gt;- Діагноз&lt;/div&gt;&lt;div&gt;- Призначення&lt;/div&gt;&lt;div&gt;&lt;br&gt;&lt;/div&gt;" style="text;strokeColor=none;fillColor=none;align=left;verticalAlign=top;spacingLeft=4;spacingRight=4;overflow=hidden;rotatable=0;points=[[0,0.5],[1,0.5]];portConstraint=eastwest;whiteSpace=wrap;html=1;" vertex="1" parent="-10B-c79CY3cSvoohW8W-12">
          <mxGeometry y="26" width="170" height="84" as="geometry" />
        </mxCell>
        <mxCell id="-10B-c79CY3cSvoohW8W-14" value="" style="line;strokeWidth=1;fillColor=none;align=left;verticalAlign=middle;spacingTop=-1;spacingLeft=3;spacingRight=3;rotatable=0;labelPosition=right;points=[];portConstraint=eastwest;strokeColor=inherit;" vertex="1" parent="-10B-c79CY3cSvoohW8W-12">
          <mxGeometry y="110" width="170" height="8" as="geometry" />
        </mxCell>
        <mxCell id="-10B-c79CY3cSvoohW8W-15" value="+ Додавання нових записів&lt;div&gt;+ Видалення існуючих записів&amp;nbsp;&lt;/div&gt;&lt;div&gt;+ Редагування записів&lt;/div&gt;" style="text;strokeColor=none;fillColor=none;align=left;verticalAlign=top;spacingLeft=4;spacingRight=4;overflow=hidden;rotatable=0;points=[[0,0.5],[1,0.5]];portConstraint=eastwest;whiteSpace=wrap;html=1;" vertex="1" parent="-10B-c79CY3cSvoohW8W-12">
          <mxGeometry y="118" width="170" height="82" as="geometry" />
        </mxCell>
        <mxCell id="-10B-c79CY3cSvoohW8W-16" value="Лікар (2)" style="swimlane;fontStyle=1;align=center;verticalAlign=top;childLayout=stackLayout;horizontal=1;startSize=26;horizontalStack=0;resizeParent=1;resizeParentMax=0;resizeLast=0;collapsible=1;marginBottom=0;whiteSpace=wrap;html=1;" vertex="1" parent="WIyWlLk6GJQsqaUBKTNV-1">
          <mxGeometry x="60" y="410" width="140" height="240" as="geometry" />
        </mxCell>
        <mxCell id="-10B-c79CY3cSvoohW8W-17" value="- Ім&#39;я&lt;span style=&quot;white-space: pre;&quot;&gt;&#x9;&lt;/span&gt;&lt;div&gt;&lt;span style=&quot;background-color: initial;&quot;&gt;- Спеціальність&lt;/span&gt;&lt;/div&gt;&lt;div&gt;- Робочий графік&lt;/div&gt;&lt;div&gt;- Номер телефону&lt;/div&gt;&lt;div&gt;- Почта&lt;/div&gt;&lt;div&gt;- Стать&lt;/div&gt;&lt;div&gt;&lt;br&gt;&lt;/div&gt;" style="text;strokeColor=none;fillColor=none;align=left;verticalAlign=top;spacingLeft=4;spacingRight=4;overflow=hidden;rotatable=0;points=[[0,0.5],[1,0.5]];portConstraint=eastwest;whiteSpace=wrap;html=1;" vertex="1" parent="-10B-c79CY3cSvoohW8W-16">
          <mxGeometry y="26" width="140" height="114" as="geometry" />
        </mxCell>
        <mxCell id="-10B-c79CY3cSvoohW8W-18" value="" style="line;strokeWidth=1;fillColor=none;align=left;verticalAlign=middle;spacingTop=-1;spacingLeft=3;spacingRight=3;rotatable=0;labelPosition=right;points=[];portConstraint=eastwest;strokeColor=inherit;" vertex="1" parent="-10B-c79CY3cSvoohW8W-16">
          <mxGeometry y="140" width="140" height="8" as="geometry" />
        </mxCell>
        <mxCell id="-10B-c79CY3cSvoohW8W-19" value="+ Перегляд списку пацієнтів&lt;div&gt;+ Перегляд історії хвороб&lt;/div&gt;&lt;div&gt;+ Прийом&lt;/div&gt;&lt;div&gt;+ Призначення ліків&lt;/div&gt;" style="text;strokeColor=none;fillColor=none;align=left;verticalAlign=top;spacingLeft=4;spacingRight=4;overflow=hidden;rotatable=0;points=[[0,0.5],[1,0.5]];portConstraint=eastwest;whiteSpace=wrap;html=1;" vertex="1" parent="-10B-c79CY3cSvoohW8W-16">
          <mxGeometry y="148" width="140" height="92" as="geometry" />
        </mxCell>
        <mxCell id="-10B-c79CY3cSvoohW8W-20" value="Ліки (6)" style="swimlane;fontStyle=1;align=center;verticalAlign=top;childLayout=stackLayout;horizontal=1;startSize=26;horizontalStack=0;resizeParent=1;resizeParentMax=0;resizeLast=0;collapsible=1;marginBottom=0;whiteSpace=wrap;html=1;" vertex="1" parent="WIyWlLk6GJQsqaUBKTNV-1">
          <mxGeometry x="300" y="560" width="170" height="220" as="geometry" />
        </mxCell>
        <mxCell id="-10B-c79CY3cSvoohW8W-21" value="- Назва&lt;div&gt;&lt;span style=&quot;background-color: initial;&quot;&gt;- Дозування&lt;/span&gt;&lt;/div&gt;&lt;div&gt;- Форма випуску&lt;/div&gt;&lt;div&gt;- Інструкція&lt;/div&gt;&lt;div&gt;- Доступність&lt;/div&gt;&lt;div&gt;- Ціна&amp;nbsp;&lt;/div&gt;&lt;div&gt;&lt;br&gt;&lt;/div&gt;" style="text;strokeColor=none;fillColor=none;align=left;verticalAlign=top;spacingLeft=4;spacingRight=4;overflow=hidden;rotatable=0;points=[[0,0.5],[1,0.5]];portConstraint=eastwest;whiteSpace=wrap;html=1;" vertex="1" parent="-10B-c79CY3cSvoohW8W-20">
          <mxGeometry y="26" width="170" height="94" as="geometry" />
        </mxCell>
        <mxCell id="-10B-c79CY3cSvoohW8W-22" value="" style="line;strokeWidth=1;fillColor=none;align=left;verticalAlign=middle;spacingTop=-1;spacingLeft=3;spacingRight=3;rotatable=0;labelPosition=right;points=[];portConstraint=eastwest;strokeColor=inherit;" vertex="1" parent="-10B-c79CY3cSvoohW8W-20">
          <mxGeometry y="120" width="170" height="8" as="geometry" />
        </mxCell>
        <mxCell id="-10B-c79CY3cSvoohW8W-65" value="+ Перевірка доступності ліків на складі&lt;div&gt;+ Редагувати інформацію про ліки&lt;/div&gt;" style="text;strokeColor=none;fillColor=none;align=left;verticalAlign=top;spacingLeft=4;spacingRight=4;overflow=hidden;rotatable=0;points=[[0,0.5],[1,0.5]];portConstraint=eastwest;whiteSpace=wrap;html=1;" vertex="1" parent="-10B-c79CY3cSvoohW8W-20">
          <mxGeometry y="128" width="170" height="92" as="geometry" />
        </mxCell>
        <mxCell id="-10B-c79CY3cSvoohW8W-24" value="Аналізи (4)" style="swimlane;fontStyle=1;align=center;verticalAlign=top;childLayout=stackLayout;horizontal=1;startSize=26;horizontalStack=0;resizeParent=1;resizeParentMax=0;resizeLast=0;collapsible=1;marginBottom=0;whiteSpace=wrap;html=1;" vertex="1" parent="WIyWlLk6GJQsqaUBKTNV-1">
          <mxGeometry x="620" y="170" width="160" height="220" as="geometry" />
        </mxCell>
        <mxCell id="-10B-c79CY3cSvoohW8W-25" value="- Пацієнт&lt;span style=&quot;white-space: pre;&quot;&gt;&#x9;&lt;/span&gt;&lt;span style=&quot;white-space: pre;&quot;&gt;&#x9;&lt;/span&gt;&lt;div&gt;&lt;span style=&quot;background-color: initial;&quot;&gt;- Тип аналізу&amp;nbsp;&lt;/span&gt;&lt;/div&gt;&lt;div&gt;- Результати аналізів&lt;/div&gt;&lt;div&gt;- Дата&lt;/div&gt;&lt;div&gt;- Лікар&lt;/div&gt;&lt;div&gt;- Норми для порівняння&lt;/div&gt;&lt;div&gt;&lt;br&gt;&lt;/div&gt;" style="text;strokeColor=none;fillColor=none;align=left;verticalAlign=top;spacingLeft=4;spacingRight=4;overflow=hidden;rotatable=0;points=[[0,0.5],[1,0.5]];portConstraint=eastwest;whiteSpace=wrap;html=1;" vertex="1" parent="-10B-c79CY3cSvoohW8W-24">
          <mxGeometry y="26" width="160" height="104" as="geometry" />
        </mxCell>
        <mxCell id="-10B-c79CY3cSvoohW8W-26" value="" style="line;strokeWidth=1;fillColor=none;align=left;verticalAlign=middle;spacingTop=-1;spacingLeft=3;spacingRight=3;rotatable=0;labelPosition=right;points=[];portConstraint=eastwest;strokeColor=inherit;" vertex="1" parent="-10B-c79CY3cSvoohW8W-24">
          <mxGeometry y="130" width="160" height="8" as="geometry" />
        </mxCell>
        <mxCell id="-10B-c79CY3cSvoohW8W-27" value="+ Додавання нових результатів аналізів&amp;nbsp;&lt;div&gt;+ Порівняння з нормами&amp;nbsp;&lt;/div&gt;&lt;div&gt;+ Графік змін результатів з часом&lt;/div&gt;" style="text;strokeColor=none;fillColor=none;align=left;verticalAlign=top;spacingLeft=4;spacingRight=4;overflow=hidden;rotatable=0;points=[[0,0.5],[1,0.5]];portConstraint=eastwest;whiteSpace=wrap;html=1;" vertex="1" parent="-10B-c79CY3cSvoohW8W-24">
          <mxGeometry y="138" width="160" height="82" as="geometry" />
        </mxCell>
        <mxCell id="-10B-c79CY3cSvoohW8W-28" value="Аптека (5)" style="swimlane;fontStyle=1;align=center;verticalAlign=top;childLayout=stackLayout;horizontal=1;startSize=26;horizontalStack=0;resizeParent=1;resizeParentMax=0;resizeLast=0;collapsible=1;marginBottom=0;whiteSpace=wrap;html=1;" vertex="1" parent="WIyWlLk6GJQsqaUBKTNV-1">
          <mxGeometry x="660" y="500" width="130" height="200" as="geometry" />
        </mxCell>
        <mxCell id="-10B-c79CY3cSvoohW8W-29" value="- Назва лікарського засобу&amp;nbsp;&lt;span style=&quot;white-space: pre;&quot;&gt;&#x9;&lt;/span&gt;&lt;div&gt;&lt;span style=&quot;background-color: initial;&quot;&gt;- Доступність&lt;/span&gt;&lt;/div&gt;&lt;div&gt;- Ціна&amp;nbsp;&lt;/div&gt;&lt;div&gt;- Опис&amp;nbsp;&lt;/div&gt;&lt;div&gt;- Дата виготовлення&lt;/div&gt;&lt;div&gt;&lt;br&gt;&lt;/div&gt;" style="text;strokeColor=none;fillColor=none;align=left;verticalAlign=top;spacingLeft=4;spacingRight=4;overflow=hidden;rotatable=0;points=[[0,0.5],[1,0.5]];portConstraint=eastwest;whiteSpace=wrap;html=1;" vertex="1" parent="-10B-c79CY3cSvoohW8W-28">
          <mxGeometry y="26" width="130" height="114" as="geometry" />
        </mxCell>
        <mxCell id="-10B-c79CY3cSvoohW8W-30" value="" style="line;strokeWidth=1;fillColor=none;align=left;verticalAlign=middle;spacingTop=-1;spacingLeft=3;spacingRight=3;rotatable=0;labelPosition=right;points=[];portConstraint=eastwest;strokeColor=inherit;" vertex="1" parent="-10B-c79CY3cSvoohW8W-28">
          <mxGeometry y="140" width="130" height="8" as="geometry" />
        </mxCell>
        <mxCell id="-10B-c79CY3cSvoohW8W-83" value="" style="endArrow=none;html=1;rounded=0;exitX=1.004;exitY=0.428;exitDx=0;exitDy=0;exitPerimeter=0;" edge="1" parent="-10B-c79CY3cSvoohW8W-28" source="-10B-c79CY3cSvoohW8W-31">
          <mxGeometry width="50" height="50" relative="1" as="geometry">
            <mxPoint x="135" y="170" as="sourcePoint" />
            <mxPoint x="150" y="170" as="targetPoint" />
          </mxGeometry>
        </mxCell>
        <mxCell id="-10B-c79CY3cSvoohW8W-31" value="&lt;div&gt;+ Продаж ліків&lt;/div&gt;&lt;div&gt;+ Додавання ліків до бази даних&lt;br&gt;&lt;/div&gt;" style="text;strokeColor=none;fillColor=none;align=left;verticalAlign=top;spacingLeft=4;spacingRight=4;overflow=hidden;rotatable=0;points=[[0,0.5],[1,0.5]];portConstraint=eastwest;whiteSpace=wrap;html=1;" vertex="1" parent="-10B-c79CY3cSvoohW8W-28">
          <mxGeometry y="148" width="130" height="52" as="geometry" />
        </mxCell>
        <mxCell id="-10B-c79CY3cSvoohW8W-33" value="" style="endArrow=none;html=1;rounded=0;" edge="1" parent="WIyWlLk6GJQsqaUBKTNV-1">
          <mxGeometry width="50" height="50" relative="1" as="geometry">
            <mxPoint x="200" y="270" as="sourcePoint" />
            <mxPoint x="240" y="270" as="targetPoint" />
          </mxGeometry>
        </mxCell>
        <mxCell id="-10B-c79CY3cSvoohW8W-34" value="" style="endArrow=none;html=1;rounded=0;" edge="1" parent="WIyWlLk6GJQsqaUBKTNV-1">
          <mxGeometry width="50" height="50" relative="1" as="geometry">
            <mxPoint x="240" y="630" as="sourcePoint" />
            <mxPoint x="240" y="270" as="targetPoint" />
          </mxGeometry>
        </mxCell>
        <mxCell id="-10B-c79CY3cSvoohW8W-35" value="" style="endArrow=none;html=1;rounded=0;" edge="1" parent="WIyWlLk6GJQsqaUBKTNV-1">
          <mxGeometry width="50" height="50" relative="1" as="geometry">
            <mxPoint x="200" y="630" as="sourcePoint" />
            <mxPoint x="240" y="630" as="targetPoint" />
          </mxGeometry>
        </mxCell>
        <mxCell id="-10B-c79CY3cSvoohW8W-49" value="" style="endArrow=none;html=1;rounded=0;" edge="1" parent="WIyWlLk6GJQsqaUBKTNV-1">
          <mxGeometry width="50" height="50" relative="1" as="geometry">
            <mxPoint x="30" y="420" as="sourcePoint" />
            <mxPoint x="30" y="100" as="targetPoint" />
            <Array as="points">
              <mxPoint x="30" y="420" />
            </Array>
          </mxGeometry>
        </mxCell>
        <mxCell id="-10B-c79CY3cSvoohW8W-50" value="" style="endArrow=none;html=1;rounded=0;" edge="1" parent="WIyWlLk6GJQsqaUBKTNV-1">
          <mxGeometry width="50" height="50" relative="1" as="geometry">
            <mxPoint x="30" y="100" as="sourcePoint" />
            <mxPoint x="60" y="100" as="targetPoint" />
          </mxGeometry>
        </mxCell>
        <mxCell id="-10B-c79CY3cSvoohW8W-51" value="" style="endArrow=none;html=1;rounded=0;" edge="1" parent="WIyWlLk6GJQsqaUBKTNV-1">
          <mxGeometry width="50" height="50" relative="1" as="geometry">
            <mxPoint x="30" y="420" as="sourcePoint" />
            <mxPoint x="60" y="420" as="targetPoint" />
          </mxGeometry>
        </mxCell>
        <mxCell id="-10B-c79CY3cSvoohW8W-52" value="" style="endArrow=none;html=1;rounded=0;" edge="1" parent="WIyWlLk6GJQsqaUBKTNV-1">
          <mxGeometry width="50" height="50" relative="1" as="geometry">
            <mxPoint x="470" y="570" as="sourcePoint" />
            <mxPoint x="620" y="570" as="targetPoint" />
          </mxGeometry>
        </mxCell>
        <mxCell id="-10B-c79CY3cSvoohW8W-53" value="" style="endArrow=none;html=1;rounded=0;" edge="1" parent="WIyWlLk6GJQsqaUBKTNV-1">
          <mxGeometry width="50" height="50" relative="1" as="geometry">
            <mxPoint x="620" y="570" as="sourcePoint" />
            <mxPoint x="620" y="510" as="targetPoint" />
          </mxGeometry>
        </mxCell>
        <mxCell id="-10B-c79CY3cSvoohW8W-54" value="" style="endArrow=none;html=1;rounded=0;" edge="1" parent="WIyWlLk6GJQsqaUBKTNV-1">
          <mxGeometry width="50" height="50" relative="1" as="geometry">
            <mxPoint x="620" y="510" as="sourcePoint" />
            <mxPoint x="660" y="510" as="targetPoint" />
          </mxGeometry>
        </mxCell>
        <mxCell id="-10B-c79CY3cSvoohW8W-55" value="" style="endArrow=none;html=1;rounded=0;" edge="1" parent="WIyWlLk6GJQsqaUBKTNV-1">
          <mxGeometry width="50" height="50" relative="1" as="geometry">
            <mxPoint x="470" y="740" as="sourcePoint" />
            <mxPoint x="630" y="740" as="targetPoint" />
          </mxGeometry>
        </mxCell>
        <mxCell id="-10B-c79CY3cSvoohW8W-57" value="" style="endArrow=none;html=1;rounded=0;" edge="1" parent="WIyWlLk6GJQsqaUBKTNV-1">
          <mxGeometry width="50" height="50" relative="1" as="geometry">
            <mxPoint x="630" y="740" as="sourcePoint" />
            <mxPoint x="630" y="690" as="targetPoint" />
          </mxGeometry>
        </mxCell>
        <mxCell id="-10B-c79CY3cSvoohW8W-58" value="" style="endArrow=none;html=1;rounded=0;" edge="1" parent="WIyWlLk6GJQsqaUBKTNV-1">
          <mxGeometry width="50" height="50" relative="1" as="geometry">
            <mxPoint x="630" y="690" as="sourcePoint" />
            <mxPoint x="660" y="690" as="targetPoint" />
          </mxGeometry>
        </mxCell>
        <mxCell id="-10B-c79CY3cSvoohW8W-59" value="" style="endArrow=none;html=1;rounded=0;" edge="1" parent="WIyWlLk6GJQsqaUBKTNV-1">
          <mxGeometry width="50" height="50" relative="1" as="geometry">
            <mxPoint x="220" y="630" as="sourcePoint" />
            <mxPoint x="280" y="630" as="targetPoint" />
          </mxGeometry>
        </mxCell>
        <mxCell id="-10B-c79CY3cSvoohW8W-62" value="" style="endArrow=none;html=1;rounded=0;" edge="1" parent="WIyWlLk6GJQsqaUBKTNV-1">
          <mxGeometry width="50" height="50" relative="1" as="geometry">
            <mxPoint x="200" y="420" as="sourcePoint" />
            <mxPoint x="300" y="420" as="targetPoint" />
          </mxGeometry>
        </mxCell>
        <mxCell id="-10B-c79CY3cSvoohW8W-63" value="" style="endArrow=none;html=1;rounded=0;" edge="1" parent="WIyWlLk6GJQsqaUBKTNV-1">
          <mxGeometry width="50" height="50" relative="1" as="geometry">
            <mxPoint x="300" y="420" as="sourcePoint" />
            <mxPoint x="300" y="140" as="targetPoint" />
          </mxGeometry>
        </mxCell>
        <mxCell id="-10B-c79CY3cSvoohW8W-64" value="" style="endArrow=none;html=1;rounded=0;" edge="1" parent="WIyWlLk6GJQsqaUBKTNV-1">
          <mxGeometry width="50" height="50" relative="1" as="geometry">
            <mxPoint x="300" y="140" as="sourcePoint" />
            <mxPoint x="328.5" y="140" as="targetPoint" />
          </mxGeometry>
        </mxCell>
        <mxCell id="-10B-c79CY3cSvoohW8W-66" value="" style="endArrow=none;html=1;rounded=0;" edge="1" parent="WIyWlLk6GJQsqaUBKTNV-1">
          <mxGeometry width="50" height="50" relative="1" as="geometry">
            <mxPoint x="280" y="630" as="sourcePoint" />
            <mxPoint x="280" y="480" as="targetPoint" />
          </mxGeometry>
        </mxCell>
        <mxCell id="-10B-c79CY3cSvoohW8W-68" value="" style="endArrow=none;html=1;rounded=0;" edge="1" parent="WIyWlLk6GJQsqaUBKTNV-1">
          <mxGeometry width="50" height="50" relative="1" as="geometry">
            <mxPoint x="280" y="480" as="sourcePoint" />
            <mxPoint x="520" y="480" as="targetPoint" />
          </mxGeometry>
        </mxCell>
        <mxCell id="-10B-c79CY3cSvoohW8W-69" value="" style="endArrow=none;html=1;rounded=0;" edge="1" parent="WIyWlLk6GJQsqaUBKTNV-1">
          <mxGeometry width="50" height="50" relative="1" as="geometry">
            <mxPoint x="520" y="480" as="sourcePoint" />
            <mxPoint x="520" y="290" as="targetPoint" />
          </mxGeometry>
        </mxCell>
        <mxCell id="-10B-c79CY3cSvoohW8W-70" value="" style="endArrow=none;html=1;rounded=0;" edge="1" parent="WIyWlLk6GJQsqaUBKTNV-1">
          <mxGeometry width="50" height="50" relative="1" as="geometry">
            <mxPoint x="499" y="290" as="sourcePoint" />
            <mxPoint x="520" y="290" as="targetPoint" />
          </mxGeometry>
        </mxCell>
        <mxCell id="-10B-c79CY3cSvoohW8W-71" value="" style="endArrow=none;html=1;rounded=0;" edge="1" parent="WIyWlLk6GJQsqaUBKTNV-1">
          <mxGeometry width="50" height="50" relative="1" as="geometry">
            <mxPoint x="499" y="130" as="sourcePoint" />
            <mxPoint x="580" y="130" as="targetPoint" />
          </mxGeometry>
        </mxCell>
        <mxCell id="-10B-c79CY3cSvoohW8W-72" value="" style="endArrow=none;html=1;rounded=0;" edge="1" parent="WIyWlLk6GJQsqaUBKTNV-1">
          <mxGeometry width="50" height="50" relative="1" as="geometry">
            <mxPoint x="580" y="180" as="sourcePoint" />
            <mxPoint x="580" y="130" as="targetPoint" />
          </mxGeometry>
        </mxCell>
        <mxCell id="-10B-c79CY3cSvoohW8W-73" value="" style="endArrow=none;html=1;rounded=0;" edge="1" parent="WIyWlLk6GJQsqaUBKTNV-1">
          <mxGeometry width="50" height="50" relative="1" as="geometry">
            <mxPoint x="580" y="180" as="sourcePoint" />
            <mxPoint x="620" y="180" as="targetPoint" />
          </mxGeometry>
        </mxCell>
        <mxCell id="-10B-c79CY3cSvoohW8W-74" value="" style="endArrow=none;html=1;rounded=0;" edge="1" parent="WIyWlLk6GJQsqaUBKTNV-1">
          <mxGeometry width="50" height="50" relative="1" as="geometry">
            <mxPoint x="520" y="290" as="sourcePoint" />
            <mxPoint x="600" y="290" as="targetPoint" />
          </mxGeometry>
        </mxCell>
        <mxCell id="-10B-c79CY3cSvoohW8W-75" value="" style="endArrow=none;html=1;rounded=0;" edge="1" parent="WIyWlLk6GJQsqaUBKTNV-1">
          <mxGeometry width="50" height="50" relative="1" as="geometry">
            <mxPoint x="600" y="360" as="sourcePoint" />
            <mxPoint x="600" y="290" as="targetPoint" />
          </mxGeometry>
        </mxCell>
        <mxCell id="-10B-c79CY3cSvoohW8W-76" value="" style="endArrow=none;html=1;rounded=0;" edge="1" parent="WIyWlLk6GJQsqaUBKTNV-1">
          <mxGeometry width="50" height="50" relative="1" as="geometry">
            <mxPoint x="600" y="360" as="sourcePoint" />
            <mxPoint x="620" y="360" as="targetPoint" />
          </mxGeometry>
        </mxCell>
        <mxCell id="-10B-c79CY3cSvoohW8W-77" value="" style="endArrow=none;html=1;rounded=0;" edge="1" parent="WIyWlLk6GJQsqaUBKTNV-1">
          <mxGeometry width="50" height="50" relative="1" as="geometry">
            <mxPoint x="820" y="510" as="sourcePoint" />
            <mxPoint x="820" y="180" as="targetPoint" />
          </mxGeometry>
        </mxCell>
        <mxCell id="-10B-c79CY3cSvoohW8W-78" value="" style="endArrow=none;html=1;rounded=0;" edge="1" parent="WIyWlLk6GJQsqaUBKTNV-1">
          <mxGeometry width="50" height="50" relative="1" as="geometry">
            <mxPoint x="780" y="180" as="sourcePoint" />
            <mxPoint x="820" y="180" as="targetPoint" />
          </mxGeometry>
        </mxCell>
        <mxCell id="-10B-c79CY3cSvoohW8W-79" value="" style="endArrow=none;html=1;rounded=0;" edge="1" parent="WIyWlLk6GJQsqaUBKTNV-1">
          <mxGeometry width="50" height="50" relative="1" as="geometry">
            <mxPoint x="790" y="510" as="sourcePoint" />
            <mxPoint x="820" y="510" as="targetPoint" />
          </mxGeometry>
        </mxCell>
        <mxCell id="-10B-c79CY3cSvoohW8W-81" value="" style="endArrow=none;html=1;rounded=0;" edge="1" parent="WIyWlLk6GJQsqaUBKTNV-1">
          <mxGeometry width="50" height="50" relative="1" as="geometry">
            <mxPoint x="780" y="370" as="sourcePoint" />
            <mxPoint x="810" y="370" as="targetPoint" />
          </mxGeometry>
        </mxCell>
        <mxCell id="-10B-c79CY3cSvoohW8W-82" value="" style="endArrow=none;html=1;rounded=0;" edge="1" parent="WIyWlLk6GJQsqaUBKTNV-1">
          <mxGeometry width="50" height="50" relative="1" as="geometry">
            <mxPoint x="810" y="670" as="sourcePoint" />
            <mxPoint x="810" y="370" as="targetPoint" />
          </mxGeometry>
        </mxCell>
      </root>
    </mxGraphModel>
  </diagram>
</mxfile>
